HIERARCHY
ROOT reference
{
  OFFSET 0 0 0
  CHANNELS 6 Xposition Yposition Zposition Zrotation Xrotation Yrotation
  JOINT root
  {
    OFFSET 0 88.2491 0
    CHANNELS 6 Xposition Yposition Zposition Zrotation Xrotation Yrotation
    JOINT Hips
    {
      OFFSET 0 -1.5e-05 0
      CHANNELS 6 Xposition Yposition Zposition Zrotation Xrotation Yrotation
      JOINT Spine
      {
        OFFSET -0.026471 -0.105476 -0.013591
        CHANNELS 6 Xposition Yposition Zposition Zrotation Xrotation Yrotation
        JOINT Spine1
        {
          OFFSET 4.85354 17.1934 5.0275
          CHANNELS 6 Xposition Yposition Zposition Zrotation Xrotation Yrotation
          JOINT Spine2
          {
            OFFSET 3.45712 17.0434 6.48957
            CHANNELS 6 Xposition Yposition Zposition Zrotation Xrotation Yrotation
            JOINT Neck
            {
              OFFSET 5.14072 15.5861 8.66939
              CHANNELS 6 Xposition Yposition Zposition Zrotation Xrotation Yrotation
              JOINT Head
              {
                OFFSET 4.15252 8.55486 6.52394
                CHANNELS 6 Xposition Yposition Zposition Zrotation Xrotation Yrotation
                End Site
                {
                  OFFSET 0 0 0
                }
              }
            }
            JOINT RightShoulder
            {
              OFFSET 3.29961 14.5422 11.6337
              CHANNELS 6 Xposition Yposition Zposition Zrotation Xrotation Yrotation
              JOINT RightArm
              {
                OFFSET -5.33341 -8.03215 12.8703
                CHANNELS 6 Xposition Yposition Zposition Zrotation Xrotation Yrotation
                JOINT RightForearm
                {
                  OFFSET -0.595417 -13.7862 25.9663
                  CHANNELS 6 Xposition Yposition Zposition Zrotation Xrotation Yrotation
                  JOINT RightHand
                  {
                    OFFSET 13.5169 -1.52003 20.8898
                    CHANNELS 6 Xposition Yposition Zposition Zrotation Xrotation Yrotation
                    End Site
                    {
                      OFFSET 0 0 0
                    }
                  }
                }
              }
            }
            JOINT LeftShoulder
            {
              OFFSET 6.99272 16.6181 5.71374
              CHANNELS 6 Xposition Yposition Zposition Zrotation Xrotation Yrotation
              JOINT LeftArm
              {
                OFFSET 6.71871 3.24728 -14.245
                CHANNELS 6 Xposition Yposition Zposition Zrotation Xrotation Yrotation
                JOINT LeftForearm
                {
                  OFFSET -8.81742 -14.5927 -23.9577
                  CHANNELS 6 Xposition Yposition Zposition Zrotation Xrotation Yrotation
                  JOINT LeftHand
                  {
                    OFFSET 10.5264 -21.3111 -7.51206
                    CHANNELS 6 Xposition Yposition Zposition Zrotation Xrotation Yrotation
                    End Site
                    {
                      OFFSET 0 0 0
                    }
                  }
                }
              }
            }
          }
        }
      }
      JOINT RightUpLeg
      {
        OFFSET -4.59323 -0.383095 8.37345
        CHANNELS 6 Xposition Yposition Zposition Zrotation Xrotation Yrotation
        JOINT RightLeg
        {
          OFFSET 10.2067 -39.0446 19.9636
          CHANNELS 6 Xposition Yposition Zposition Zrotation Xrotation Yrotation
          JOINT RightFoot
          {
            OFFSET -4.84224 -40.8755 1.14925
            CHANNELS 6 Xposition Yposition Zposition Zrotation Xrotation Yrotation
            JOINT RightToe
            {
              OFFSET 9.73669 -6.85347 13.5043
              CHANNELS 6 Xposition Yposition Zposition Zrotation Xrotation Yrotation
              End Site
              {
                OFFSET 0 0 0
              }
            }
          }
        }
      }
      JOINT LeftUpLeg
      {
        OFFSET 4.59322 0.383111 -8.37344
        CHANNELS 6 Xposition Yposition Zposition Zrotation Xrotation Yrotation
        JOINT LeftLeg
        {
          OFFSET 5.42552 -42.6869 -13.2512
          CHANNELS 6 Xposition Yposition Zposition Zrotation Xrotation Yrotation
          JOINT LeftFoot
          {
            OFFSET -11.0952 -37.6886 -12.3303
            CHANNELS 6 Xposition Yposition Zposition Zrotation Xrotation Yrotation
            JOINT LeftToe
            {
              OFFSET 16.3568 -7.51905 0.239311
              CHANNELS 6 Xposition Yposition Zposition Zrotation Xrotation Yrotation
              End Site
              {
                OFFSET 0 0 0
              }
            }
          }
        }
      }
    }
  }
}
MOTION
Frames:	8
Frame Time:	0.0333333
0 0 0 0 0 -0 -4e-06 88.2491 -7e-06 2e-06 1e-06 2e-06 -2e-06 -1.5e-05 -2e-06 1e-06 2e-06 4e-06 -0.026471 -0.105476 -0.013591 -2e-06 -3.49066e-14 1e-06 4.85354 17.1934 5.0275 1e-06 -3e-06 -2e-06 3.45712 17.0434 6.48957 1e-06 1e-06 1e-06 5.14072 15.5861 8.66939 -5e-06 1.74533e-13 -2e-06 4.15252 8.55486 6.52394 1e-06 -4e-06 -3e-06 3.29961 14.5422 11.6337 -1e-06 3e-06 3e-06 -5.33341 -8.03215 12.8703 -3e-06 -8e-06 3e-06 -0.595417 -13.7862 25.9663 3e-06 -3e-06 -3e-06 13.5169 -1.52003 20.8898 -2.5281e-22 -2e-06 -3.03321e-21 6.99272 16.6181 5.71374 -3e-06 -3e-06 1e-06 6.71871 3.24728 -14.245 8e-06 8e-06 2e-06 -8.81742 -14.5927 -23.9577 1e-06 -1e-06 1.74533e-14 10.5264 -21.3111 -7.51206 2e-06 -1e-06 2e-06 -4.59323 -0.383095 8.37345 1e-06 3e-06 6e-06 10.2067 -39.0446 19.9636 2e-06 -4.18879e-13 -1.2e-05 -4.84224 -40.8755 1.14925 -1.79256e-21 -1.51661e-21 7e-06 9.73669 -6.85347 13.5043 -1e-06 -8.72665e-14 5e-06 4.59322 0.383111 -8.37344 6e-06 4e-06 -1e-06 5.42552 -42.6869 -13.2512 7e-06 -2e-06 -1e-06 -11.0952 -37.6886 -12.3303 1e-06 2e-06 -3.49066e-14 16.3568 -7.51905 0.239311 -2.08994e-21 -3.03321e-21 0.00740401 
0 0 0 0 0 -0 0.062623 88.1163 0.757151 0.315981 -0.0662511 0.341786 -2e-06 -1.5e-05 -2e-06 0.022617 0.0425248 -0.0157008 -0.026471 -0.105476 -0.013591 -0.038487 -0.0115385 -0.00671875 4.85354 17.1934 5.0275 -0.055013 -0.0161935 -0.00473155 3.45712 17.0434 6.48957 -0.037759 -0.0103785 0.000773161 5.14072 15.5861 8.66939 -0.085784 -0.0376391 -0.0420184 4.15252 8.55486 6.52394 -0.16581 -0.0467887 -0.0713437 3.29961 14.5422 11.6337 -0.0443651 -0.10214 -0.0215751 -5.33341 -8.03215 12.8703 -0.396381 0.401817 -0.23335 -0.595417 -13.7862 25.9663 -0.187429 0.25041 -0.364902 13.5169 -1.52003 20.8898 0.187777 0.238203 -0.186838 6.99272 16.6181 5.71374 0.0449809 -0.0104569 0.135126 6.71871 3.24728 -14.245 0.210208 -0.196805 -0.0825315 -8.81742 -14.5927 -23.9577 1.53218 -1.84474 -1.42531 10.5264 -21.3111 -7.51206 -0.655052 0.115892 -0.460867 -4.59323 -0.383095 8.37345 0.198395 -0.145487 -0.196015 10.2067 -39.0446 19.9636 -1.15924 1.4796 -0.192756 -4.84224 -40.8755 1.14925 0.453523 -1.29836 0.0354182 9.73669 -6.85347 13.5043 0.186157 -0.183368 0.0242209 4.59322 0.383111 -8.37344 -0.491585 0.494968 -0.107196 5.42552 -42.6869 -13.2512 0.423766 -0.0173168 -0.133632 -11.0952 -37.6886 -12.3303 -0.142315 -0.301632 0.231873 16.3568 -7.51905 0.239311 -0.0306691 0.0447892 0.00740401 
0 0 0 0 0 -0 0.073251 88.3087 1.8391 0.340229 -0.252999 0.881622 -2e-06 -1.5e-05 -2e-06 0.0586111 0.110135 -0.0405127 -0.026471 -0.105476 -0.013591 0.029808 0.0463268 -0.0292231 4.85354 17.1934 5.0275 0.029482 0.0568636 -0.0688433 3.45712 17.0434 6.48957 0.01571 0.0381176 -0.0489085 5.14072 15.5861 8.66939 -0.123981 -0.10206 -0.086498 4.15252 8.55486 6.52394 -0.270586 -0.168781 -0.129204 3.29961 14.5422 11.6337 -0.0797944 -0.179818 -0.0416905 -5.33341 -8.03215 12.8703 -0.579063 0.668862 -1.08373 -0.595417 -13.7862 25.9663 -0.105564 0.140635 -0.205238 13.5169 -1.52003 20.8898 -0.0362978 -0.0493845 -0.177646 6.99272 16.6181 5.71374 0.1888 0.0890229 0.374008 6.71871 3.24728 -14.245 -0.280666 -0.463367 -0.461429 -8.81742 -14.5927 -23.9577 3.66057 -4.56388 -3.39342 10.5264 -21.3111 -7.51206 -1.19141 0.19919 -0.770677 -4.59323 -0.383095 8.37345 0.225969 0.438069 -0.484259 10.2067 -39.0446 19.9636 -1.61216 2.06013 -0.260123 -4.84224 -40.8755 1.14925 0.959038 -1.98861 0.0277327 9.73669 -6.85347 13.5043 0.0971896 -0.717939 0.0406139 4.59322 0.383111 -8.37344 -1.94913 1.25682 -0.153675 5.42552 -42.6869 -13.2512 3.5387 -0.174942 -1.11182 -11.0952 -37.6886 -12.3303 -1.98508 -0.755975 1.06726 16.3568 -7.51905 0.239311 -0.0592845 -0.233823 0.00740407 
0 0 0 0 0 -0 0.020136 88.7983 3.20114 0.0991271 -0.472948 1.59323 -2e-06 -1.5e-05 -2e-06 0.0885743 0.166366 -0.0612493 -0.026471 -0.105476 -0.013591 0.181615 0.140327 -0.0875262 4.85354 17.1934 5.0275 0.22141 0.175997 -0.203945 3.45712 17.0434 6.48957 0.137369 0.116526 -0.154307 5.14072 15.5861 8.66939 -0.117415 -0.162977 -0.138211 4.15252 8.55486 6.52394 -0.298699 -0.319761 -0.195921 3.29961 14.5422 11.6337 -0.0906036 -0.211495 -0.0416245 -5.33341 -8.03215 12.8703 -0.543449 0.763045 -2.35439 -0.595417 -13.7862 25.9663 0.151576 -0.200089 0.293431 13.5169 -1.52003 20.8898 -0.565403 -0.838547 0.0549202 6.99272 16.6181 5.71374 0.393032 0.257242 0.678296 6.71871 3.24728 -14.245 -1.2528 -0.671641 -0.98806 -8.81742 -14.5927 -23.9577 6.18366 -8.03273 -5.70565 10.5264 -21.3111 -7.51206 -1.57286 0.283048 -0.955981 -4.59323 -0.383095 8.37345 0.156229 1.55317 -0.781393 10.2067 -39.0446 19.9636 -1.50394 1.92131 -0.244442 -4.84224 -40.8755 1.14925 1.46233 -2.09163 0.0792017 9.73669 -6.85347 13.5043 -0.161596 -1.5841 0.053826 4.59322 0.383111 -8.37344 -4.92855 2.2958 -0.00358439 5.42552 -42.6869 -13.2512 10.4528 -0.714003 -3.24697 -11.0952 -37.6886 -12.3303 -6.27117 -1.5084 2.7269 16.3568 -7.51905 0.239311 0.221035 -0.669333 0.00767714 
0 0 0 0 0 -0 -0.077307 89.4961 4.78116 -0.289588 -0.637999 2.41644 -2e-06 -1.5e-05 -2e-06 0.139122 0.261124 -0.0964163 -0.026471 -0.105476 -0.013591 0.340794 0.192094 -0.175551 4.85354 17.1934 5.0275 0.411222 0.228674 -0.402611 3.45712 17.0434 6.48957 0.252302 0.149719 -0.302235 5.14072 15.5861 8.66939 -0.122113 -0.13206 -0.238293 4.15252 8.55486 6.52394 -0.285074 -0.353705 -0.396262 3.29961 14.5422 11.6337 -0.0577441 -0.133308 -0.0277604 -5.33341 -8.03215 12.8703 -0.0110824 0.681273 -3.64237 -0.595417 -13.7862 25.9663 0.298429 -0.391959 0.576395 13.5169 -1.52003 20.8898 -1.32942 -2.14785 0.776757 6.99272 16.6181 5.71374 0.637101 0.480362 1.0169 6.71871 3.24728 -14.245 -2.28513 -0.750831 -1.51337 -8.81742 -14.5927 -23.9577 8.7736 -11.8815 -8.05072 10.5264 -21.3111 -7.51206 -1.90704 0.452796 -1.39296 -4.59323 -0.383095 8.37345 -0.130395 2.93667 -0.812586 10.2067 -39.0446 19.9636 -0.913689 1.1654 -0.154361 -4.84224 -40.8755 1.14925 1.66948 -1.67131 0.195998 9.73669 -6.85347 13.5043 -0.320405 -2.58886 0.077937 4.59322 0.383111 -8.37344 -9.7642 3.68565 0.256424 5.42552 -42.6869 -13.2512 21.3048 -2.07262 -6.43974 -11.0952 -37.6886 -12.3303 -13.3603 -3.2024 5.03772 16.3568 -7.51905 0.239311 1.89077 -0.377416 -0.0493915 
0 0 0 0 0 -0 -0.233648 90.2486 6.49596 -0.722011 -0.688063 3.23214 -2e-06 -1.5e-05 -2e-06 0.231036 0.433053 -0.160354 -0.026471 -0.105476 -0.013591 0.467659 0.155415 -0.202882 4.85354 17.1934 5.0275 0.55445 0.149494 -0.545064 3.45712 17.0434 6.48957 0.338203 0.0940319 -0.408403 5.14072 15.5861 8.66939 -0.18171 -0.0171804 -0.381105 4.15252 8.55486 6.52394 -0.306401 -0.243133 -0.719899 3.29961 14.5422 11.6337 -0.0676199 -0.0570511 -0.10839 -5.33341 -8.03215 12.8703 0.572837 0.696896 -4.67889 -0.595417 -13.7862 25.9663 0.308618 -0.405197 0.595982 13.5169 -1.52003 20.8898 -1.58715 -3.18297 1.33965 6.99272 16.6181 5.71374 0.871698 0.749777 1.27163 6.71871 3.24728 -14.245 -3.20815 -0.733482 -2.22163 -8.81742 -14.5927 -23.9577 11.1962 -15.7532 -10.2123 10.5264 -21.3111 -7.51206 -2.02342 0.601073 -1.75728 -4.59323 -0.383095 8.37345 -0.312261 4.35667 -1.06282 10.2067 -39.0446 19.9636 -0.151111 0.192306 -0.0267909 -4.84224 -40.8755 1.14925 1.4938 -1.32711 0.275181 9.73669 -6.85347 13.5043 -0.351922 -3.56746 0.112174 4.59322 0.383111 -8.37344 -9.15935 4.94344 -1.3892 5.42552 -42.6869 -13.2512 21.3147 -2.07414 -6.44255 -11.0952 -37.6886 -12.3303 -16.038 -6.58522 5.9908 16.3568 -7.51905 0.239311 5.12898 1.19208 -0.248101 
0 0 0 0 0 -0 -0.440074 90.9269 8.26426 -1.15359 -0.661807 4.00322 -2e-06 -1.5e-05 -2e-06 0.375313 0.701994 -0.26092 -0.026471 -0.105476 -0.013591 0.551062 0.0443342 -0.148352 4.85354 17.1934 5.0275 0.636582 -0.0439134 -0.608487 3.45712 17.0434 6.48957 0.38707 -0.0384879 -0.456649 5.14072 15.5861 8.66939 -0.283515 0.141688 -0.553326 4.15252 8.55486 6.52394 -0.36719 -0.049802 -1.11867 3.29961 14.5422 11.6337 -0.11466 0.0125336 -0.268146 -5.33341 -8.03215 12.8703 1.07219 0.767698 -5.36535 -0.595417 -13.7862 25.9663 0.118652 -0.156816 0.22983 13.5169 -1.52003 20.8898 -1.39096 -3.73617 1.60927 6.99272 16.6181 5.71374 1.10063 1.07944 1.43272 6.71871 3.24728 -14.245 -3.9193 -0.687481 -3.12852 -8.81742 -14.5927 -23.9577 13.354 -19.4248 -12.1054 10.5264 -21.3111 -7.51206 -1.95022 0.708506 -2.01127 -4.59323 -0.383095 8.37345 -0.298423 5.6673 -1.56685 10.2067 -39.0446 19.9636 0.565964 -0.718526 0.104618 -4.84224 -40.8755 1.14925 1.08296 -1.32033 0.326227 9.73669 -6.85347 13.5043 -0.293015 -4.39824 0.152446 4.59322 0.383111 -8.37344 -8.34415 6.11547 -2.95174 5.42552 -42.6869 -13.2512 21.2838 -2.07388 -6.44208 -11.0952 -37.6886 -12.3303 -19.3409 -11.5144 7.23313 16.3568 -7.51905 0.239311 8.98757 3.83475 -0.674227 
0 0 0 0 0 -0 -0.644798 91.233 9.8827 -1.47106 -0.608588 4.74 -2e-06 -1.5e-05 -2e-06 0.508742 0.949696 -0.354205 -0.026471 -0.105476 -0.013591 0.600554 -0.0423951 -0.0706735 4.85354 17.1934 5.0275 0.678571 -0.199947 -0.62617 3.45712 17.0434 6.48957 0.412461 -0.14506 -0.471239 5.14072 15.5861 8.66939 -0.338337 0.17981 -0.704323 4.15252 8.55486 6.52394 -0.423959 -0.062477 -1.40101 3.29961 14.5422 11.6337 -0.082713 0.193869 -0.337136 -5.33341 -8.03215 12.8703 1.31072 0.375554 -5.68445 -0.595417 -13.7862 25.9663 -0.406701 0.547638 -0.794753 13.5169 -1.52003 20.8898 -1.75899 -3.84715 1.6723 6.99272 16.6181 5.71374 1.42046 1.57809 1.61591 6.71871 3.24728 -14.245 -4.42796 -0.911798 -4.26877 -8.81742 -14.5927 -23.9577 15.118 -22.5813 -13.6261 10.5264 -21.3111 -7.51206 -1.96216 0.762458 -2.23698 -4.59323 -0.383095 8.37345 -0.0461513 6.49751 -2.10505 10.2067 -39.0446 19.9636 0.612313 -0.777251 0.113492 -4.84224 -40.8755 1.14925 1.19758 -2.05909 0.571985 9.73669 -6.85347 13.5043 -0.390172 -4.89678 0.161194 4.59322 0.383111 -8.37344 -7.69799 7.17162 -3.97195 5.42552 -42.6869 -13.2512 21.2785 -2.07355 -6.44147 -11.0952 -37.6886 -12.3303 -20.6484 -16.1894 8.22505 16.3568 -7.51905 0.239311 9.30857 6.70973 -0.868124 
